<svg xmlns="http://www.w3.org/2000/svg" width="120" height="32" viewBox="0 0 120 32" fill="none">
  <path d="M10.8 25.6C10.1333 25.6 9.52 25.4933 8.96 25.28C8.4 25.0667 7.90667 24.76 7.48 24.36C7.05333 23.96 6.72 23.48 6.48 22.92C6.24 22.3467 6.12 21.7067 6.12 21C6.12 20.2933 6.24 19.66 6.48 19.1C6.72 18.54 7.05333 18.06 7.48 17.66C7.90667 17.26 8.4 16.9533 8.96 16.74C9.52 16.5267 10.1333 16.42 10.8 16.42C11.4667 16.42 12.08 16.5267 12.64 16.74C13.2 16.9533 13.6933 17.26 14.12 17.66C14.5467 18.06 14.88 18.54 15.12 19.1C15.36 19.66 15.48 20.2933 15.48 21C15.48 21.7067 15.36 22.3467 15.12 22.92C14.88 23.48 14.5467 23.96 14.12 24.36C13.6933 24.76 13.2 25.0667 12.64 25.28C12.08 25.4933 11.4667 25.6 10.8 25.6ZM10.8 23.6C11.52 23.6 12.0933 23.3867 12.52 22.96C12.9467 22.5333 13.16 21.9333 13.16 21.16C13.16 20.3733 12.9467 19.7667 12.52 19.34C12.0933 18.9133 11.52 18.7 10.8 18.7C10.08 18.7 9.50667 18.9133 9.08 19.34C8.65333 19.7667 8.44 20.3733 8.44 21.16C8.44 21.9333 8.65333 22.5333 9.08 22.96C9.50667 23.3867 10.08 23.6 10.8 23.6Z" fill="#3F83F8"/>
  <path d="M19.0519 25.5V16.52H21.2319V17.56H21.3519C21.4586 17.3333 21.5919 17.1267 21.7519 16.94C21.9119 16.7533 22.0986 16.6 22.3119 16.48C22.5252 16.3467 22.7586 16.2467 23.0119 16.18C23.2786 16.1 23.5652 16.06 23.8719 16.06C24.0719 16.06 24.2452 16.0733 24.3919 16.1C24.5519 16.1267 24.6852 16.16 24.7919 16.2L24.3719 18.4C24.2786 18.36 24.1652 18.3333 24.0319 18.32C23.8986 18.2933 23.7452 18.28 23.5719 18.28C23.2252 18.28 22.9252 18.34 22.6719 18.46C22.4186 18.5667 22.2052 18.72 22.0319 18.92C21.8719 19.12 21.7452 19.36 21.6519 19.64C21.5719 19.92 21.5319 20.2267 21.5319 20.56V25.5H19.0519Z" fill="#3F83F8"/>
  <path d="M25.9997 25.5V16.52H28.4797V25.5H25.9997ZM25.7397 14.32C25.7397 13.8933 25.8997 13.5533 26.2197 13.3C26.5397 13.0333 26.9197 12.9 27.3597 12.9C27.7997 12.9 28.1797 13.0333 28.4997 13.3C28.8197 13.5533 28.9797 13.8933 28.9797 14.32C28.9797 14.7467 28.8197 15.0933 28.4997 15.36C28.1797 15.6133 27.7997 15.74 27.3597 15.74C26.9197 15.74 26.5397 15.6133 26.2197 15.36C25.8997 15.0933 25.7397 14.7467 25.7397 14.32Z" fill="#3F83F8"/>
  <path d="M36.7277 25.5V16.52H39.2077V25.5H36.7277ZM36.4677 14.32C36.4677 13.8933 36.6277 13.5533 36.9477 13.3C37.2677 13.0333 37.6477 12.9 38.0877 12.9C38.5277 12.9 38.9077 13.0333 39.2277 13.3C39.5477 13.5533 39.7077 13.8933 39.7077 14.32C39.7077 14.7467 39.5477 15.0933 39.2277 15.36C38.9077 15.6133 38.5277 15.74 38.0877 15.74C37.6477 15.74 37.2677 15.6133 36.9477 15.36C36.6277 15.0933 36.4677 14.7467 36.4677 14.32Z" fill="#3F83F8"/>
  <path d="M41.506 16.52H43.986V25.5H41.506V16.52ZM42.026 14C42.026 13.6133 42.1594 13.2867 42.426 13.02C42.6927 12.7533 43.0194 12.62 43.406 12.62C43.7927 12.62 44.1194 12.7533 44.386 13.02C44.6527 13.2867 44.786 13.6133 44.786 14C44.786 14.3867 44.6527 14.7133 44.386 14.98C44.1194 15.2467 43.7927 15.38 43.406 15.38C43.0194 15.38 42.6927 15.2467 42.426 14.98C42.1594 14.7133 42.026 14.3867 42.026 14Z" fill="#474747"/>
  <path d="M46.3984 16.52H48.8784V25.5H46.3984V16.52ZM46.9184 14C46.9184 13.6133 47.0517 13.2867 47.3184 13.02C47.5851 12.7533 47.9117 12.62 48.2984 12.62C48.6851 12.62 49.0117 12.7533 49.2784 13.02C49.5451 13.2867 49.6784 13.6133 49.6784 14C49.6784 14.3867 49.5451 14.7133 49.2784 14.98C49.0117 15.2467 48.6851 15.38 48.2984 15.38C47.9117 15.38 47.5851 15.2467 47.3184 14.98C47.0517 14.7133 46.9184 14.3867 46.9184 14Z" fill="#474747"/>
  <path d="M58.0309 25.5V20.54C58.0309 19.9 57.8975 19.4133 57.6309 19.08C57.3642 18.7467 56.9909 18.58 56.5109 18.58C56.0042 18.58 55.5909 18.76 55.2709 19.12C54.9509 19.4667 54.7909 19.9867 54.7909 20.68V25.5H52.3109V16.52H54.6709V17.7H54.7909C55.0042 17.3267 55.3442 17.0267 55.8109 16.8C56.2909 16.5733 56.8109 16.46 57.3709 16.46C58.0109 16.46 58.5509 16.58 58.9909 16.82C59.4309 17.06 59.7842 17.38 60.0509 17.78C60.3309 18.18 60.5242 18.64 60.6309 19.16C60.7509 19.68 60.8109 20.2267 60.8109 20.8V25.5H58.0309Z" fill="#474747"/>
  <path d="M62.8033 16.52H65.2833V25.5H62.8033V16.52ZM63.3233 14C63.3233 13.6133 63.4566 13.2867 63.7233 13.02C63.9899 12.7533 64.3166 12.62 64.7033 12.62C65.0899 12.62 65.4166 12.7533 65.6833 13.02C65.9499 13.2867 66.0833 13.6133 66.0833 14C66.0833 14.3867 65.9499 14.7133 65.6833 14.98C65.4166 15.2467 65.0899 15.38 64.7033 15.38C64.3166 15.38 63.9899 15.2467 63.7233 14.98C63.4566 14.7133 63.3233 14.3867 63.3233 14Z" fill="#474747"/>
  <path d="M73.0141 25.6C72.3341 25.6 71.7141 25.4933 71.1541 25.28C70.5941 25.0533 70.1074 24.7333 69.6941 24.32C69.2807 23.9067 68.9541 23.42 68.7141 22.86C68.4874 22.3 68.3741 21.6933 68.3741 21.04C68.3741 20.3867 68.4874 19.78 68.7141 19.22C68.9541 18.66 69.2807 18.1733 69.6941 17.76C70.1074 17.3467 70.5941 17.0267 71.1541 16.8C71.7141 16.5733 72.3341 16.46 73.0141 16.46C73.7074 16.46 74.3274 16.58 74.8741 16.82C75.4341 17.0467 75.8874 17.38 76.2341 17.82L74.5941 19.24C74.3874 18.9733 74.1341 18.7667 73.8341 18.62C73.5341 18.46 73.2074 18.38 72.8541 18.38C72.5541 18.38 72.2674 18.44 71.9941 18.56C71.7341 18.68 71.5074 18.8467 71.3141 19.06C71.1341 19.2733 70.9874 19.52 70.8741 19.8C70.7741 20.08 70.7274 20.38 70.7274 20.7C70.7274 21.3533 70.9207 21.8867 71.3074 22.3C71.7074 22.7 72.2341 22.9 72.8874 22.9C73.1874 22.9 73.4874 22.8467 73.7874 22.74C74.0874 22.62 74.3474 22.44 74.5674 22.2L76.1541 23.64C75.7674 24.08 75.2874 24.4133 74.7141 24.64C74.1407 25.28 73.6941 25.6 73.0141 25.6Z" fill="#474747"/>
  <path d="M81.0282 25.6C80.3482 25.6 79.7282 25.4933 79.1682 25.28C78.6082 25.0533 78.1215 24.7333 77.7082 24.32C77.2949 23.9067 76.9682 23.42 76.7282 22.86C76.5015 22.3 76.3882 21.6933 76.3882 21.04C76.3882 20.3867 76.5015 19.78 76.7282 19.22C76.9682 18.66 77.2949 18.1733 77.7082 17.76C78.1215 17.3467 78.6082 17.0267 79.1682 16.8C79.7282 16.5733 80.3482 16.46 81.0282 16.46C81.7215 16.46 82.3415 16.58 82.8882 16.82C83.4482 17.0467 83.9015 17.38 84.2482 17.82L82.6082 19.24C82.4015 18.9733 82.1482 18.7667 81.8482 18.62C81.5482 18.46 81.2215 18.38 80.8682 18.38C80.5682 18.38 80.2815 18.44 80.0082 18.56C79.7482 18.68 79.5215 18.8467 79.3282 19.06C79.1482 19.2733 79.0015 19.52 78.8882 19.8C78.7882 20.08 78.7415 20.38 78.7415 20.7C78.7415 21.3533 78.9349 21.8867 79.3215 22.3C79.7215 22.7 80.2482 22.9 80.9015 22.9C81.2015 22.9 81.5015 22.8467 81.8015 22.74C82.1015 22.62 82.3615 22.44 82.5815 22.2L84.1682 23.64C83.7815 24.08 83.3015 24.4133 82.7282 24.64C82.1549 25.28 81.7082 25.6 81.0282 25.6Z" fill="#474747"/>
  <path d="M86.5441 25.5V16.52H88.9041V17.7H89.0241C89.2374 17.3267 89.5774 17.0267 90.0441 16.8C90.5241 16.5733 91.0441 16.46 91.6041 16.46C92.2441 16.46 92.7841 16.58 93.2241 16.82C93.6641 17.06 94.0174 17.38 94.2841 17.78C94.5641 18.18 94.7574 18.64 94.8641 19.16C94.9841 19.68 95.0441 20.2267 95.0441 20.8V25.5H92.5641V20.54C92.5641 19.9 92.4307 19.4133 92.1641 19.08C91.8974 18.7467 91.5241 18.58 91.0441 18.58C90.5374 18.58 90.1241 18.76 89.8041 19.12C89.4841 19.4667 89.3241 19.9867 89.3241 20.68V25.5H86.5441Z" fill="#474747"/>
  <path d="M97.2825 25.5V16.52H99.6425V17.7H99.7625C99.9758 17.3267 100.316 17.0267 100.782 16.8C101.262 16.5733 101.782 16.46 102.342 16.46C102.982 16.46 103.522 16.58 103.962 16.82C104.402 17.06 104.756 17.38 105.022 17.78C105.302 18.18 105.496 18.64 105.602 19.16C105.722 19.68 105.782 20.2267 105.782 20.8V25.5H103.302V20.54C103.302 19.9 103.169 19.4133 102.902 19.08C102.636 18.7467 102.262 18.58 101.782 18.58C101.276 18.58 100.862 18.76 100.542 19.12C100.222 19.4667 100.062 19.9867 100.062 20.68V25.5H97.2825Z" fill="#474747"/>
  <path d="M107.956 16.52H110.436V25.5H107.956V16.52ZM108.476 14C108.476 13.6133 108.609 13.2867 108.876 13.02C109.143 12.7533 109.469 12.62 109.856 12.62C110.243 12.62 110.569 12.7533 110.836 13.02C111.103 13.2867 111.236 13.6133 111.236 14C111.236 14.3867 111.103 14.7133 110.836 14.98C110.569 15.2467 110.243 15.38 109.856 15.38C109.469 15.38 109.143 15.2467 108.876 14.98C108.609 14.7133 108.476 14.3867 108.476 14Z" fill="#474747"/>
  <path d="M112.8 25.5V12.86H115.28V17.52H115.4C115.614 17.1733 115.954 16.9 116.42 16.7C116.887 16.5 117.4 16.4 117.96 16.4C118.627 16.4 119.214 16.5267 119.72 16.78C120.227 17.02 120.647 17.3533 120.98 17.78C121.327 18.1933 121.587 18.68 121.76 19.24C121.934 19.8 122.02 20.4067 122.02 21.06C122.02 21.7133 121.934 22.3267 121.76 22.9C121.587 23.46 121.327 23.9467 120.98 24.36C120.647 24.7733 120.227 25.1067 119.72 25.36C119.214 25.6 118.627 25.72 117.96 25.72C117.4 25.72 116.887 25.6267 116.42 25.44C115.954 25.24 115.614 24.9467 115.4 24.56H115.28V25.5H112.8ZM117.08 23.68C117.8 23.68 118.36 23.4467 118.76 22.98C119.16 22.5 119.36 21.8533 119.36 21.04C119.36 20.2267 119.16 19.5867 118.76 19.12C118.36 18.64 117.8 18.4 117.08 18.4C116.347 18.4 115.78 18.64 115.38 19.12C114.994 19.5867 114.8 20.2267 114.8 21.04C114.8 21.8533 114.994 22.5 115.38 22.98C115.78 23.4467 116.347 23.68 117.08 23.68Z" fill="#474747"/>
</svg> 